<svg xmlns="http://www.w3.org/2000/svg" xmlns:xlink="http://www.w3.org/1999/xlink" xmlns:dc="http://purl.org/dc/elements/1.1/" xmlns:cc="http://web.resource.org/cc/" xmlns:rdf="http://www.w3.org/1999/02/22-rdf-syntax-ns#" xmlns:sodipodi="http://sodipodi.sourceforge.net/DTD/sodipodi-0.dtd" xmlns:inkscape="http://www.inkscape.org/namespaces/inkscape" version="1.1" baseProfile="full" preserveAspectRatio="xMidYMid meet" id="svg_sinadura" style="fill:none;stroke-width: 7; stroke-linecap: round; stroke-linejoin: round; stroke-miterlimit: 10;" viewBox="21.5 114.5 445 171.85"><title id="josu_sinadura">Path animation with stroke-dasharray</title><desc id="desc1">This example demonstrates the use of a path element, an animate element, and the stroke-dasharray attribute to simulate drawing.</desc><defs id="svg_document_defs" visibility="visible"/><g id="main_group" visibility="visible"><line stroke="#000000" visibility="visible" y1="118px" id="jota_marra" stroke-width="7px" x1="111.5px" y2="150px" x2="114.5px" transform=""/><path stroke="#000000" id="josu" stroke-width="7px" d="M25,211.5 C30.5,206.5 108.5,159 128.5,175.5 C148.5,192.5 190.5,251 164.5,276.5 C138.5,302 125.5,245 156,206.5 C186.5,168 183.5,179 189.5,182 C195.5,185 211.5,225 231,220 C250.5,215 260.5,188 252,173.5 C243.5,159 222.5,142.5 191,175.5 C159.5,208.5 242,173.5 251,173.5 C260.5,173.5 291,170.5 296.5,195 C302,219.5 286,230 281.5,217.5 C277,205 325,159.5 329,160.5 C333,161.5 342,211 359,205.5 C376,200 390.5,162 392.5,163.5 C394.5,165 396.5,187.5 404.5,203 C412.5,218.5 426.5,214 440,210.5" fill="none" transform=""/></g><line stroke="#000000" y1="212px" id="dot" x1="460px" stroke-width="7px" y2="211px" x2="463px" transform=""/></svg>